<svg width="803" height="803" viewBox="0 0 803 803" fill="none" xmlns="http://www.w3.org/2000/svg">
<circle cx="401.5" cy="401.5" r="401.5" fill="black"/>
<path fill-rule="evenodd" clip-rule="evenodd" d="M538.473 457.048L617.895 536.265L401.999 752L186.333 536.265L265.753 457.048L401.999 593.335L538.473 457.048ZM401.999 320.527L482.559 401.116L401.999 481.702L321.667 401.342V401.116L335.816 386.96L342.663 380.111L401.999 320.527ZM130.42 321.669L209.84 401.116L130.42 480.332L51 400.884L130.42 321.669ZM673.578 321.669L753 401.116L673.578 480.332L594.161 400.884L673.578 321.669ZM401.999 50L617.663 265.737L538.246 345.183L401.999 208.663L265.753 344.955L186.333 265.737L401.999 50Z" fill="#F3BA2F"/>
</svg>
