<svg width="1530" height="1530" viewBox="0 0 1530 1530" fill="none" xmlns="http://www.w3.org/2000/svg">
<circle cx="765" cy="765" r="765" fill="black"/>
<path fill-rule="evenodd" clip-rule="evenodd" d="M564.334 250.788C577.884 236.007 597.593 228 617.301 228H747.871C764.5 228 773.122 247.709 761.421 259.411L503.361 534.715H645.632L790.368 688.073H503.361L790.368 995.404H616.685C596.361 995.404 577.268 986.782 563.719 972.616L272.401 660.974C246.533 633.258 246.533 590.146 272.401 562.43L563.719 250.788H564.334Z" fill="#1DA2B4"/>
<path fill-rule="evenodd" clip-rule="evenodd" d="M964.666 1279.33C951.116 1294.11 931.408 1302.12 911.699 1302.12H781.129C764.5 1302.12 755.878 1282.41 767.58 1270.71L1025.64 995.404H883.368L738.633 842.046H1025.64L738.633 534.715H912.315C932.639 534.715 951.732 543.338 965.282 557.503L1256.6 869.146C1282.47 896.861 1282.47 939.973 1256.6 967.689L965.282 1279.33H964.666Z" fill="#1DA2B4"/>
</svg>
