<svg width="1530" height="1530" viewBox="0 0 1530 1530" fill="none" xmlns="http://www.w3.org/2000/svg">
<circle cx="765" cy="765" r="765" fill="white"/>
<mask id="mask0_72_582" style="mask-type:luminance" maskUnits="userSpaceOnUse" x="193" y="193" width="1144" height="1144">
<path d="M1337 193H193V1337H1337V193Z" fill="white"/>
</mask>
<g mask="url(#mask0_72_582)">
<path fill-rule="evenodd" clip-rule="evenodd" d="M312.209 1276.47H378.48V1318.49H312.209V1276.47ZM1140.22 986.395C1140.22 1042.3 1113.19 1084.32 1073.39 1105.42C1033.6 1126.53 977.506 1138.56 882.358 1138.56H303.879V1110.98H879.581C967.325 1110.98 1026.38 1096.91 1055.44 1080.99C1087.28 1063.59 1108.94 1021.38 1108.94 986.21C1108.94 931.231 1071.91 902.169 1043.78 885.508C1029.52 876.993 982.134 855.705 857.182 855.705H637.638V828.123H862.366C1003.24 828.123 1033.04 842.007 1067.29 862.554C1103.75 884.583 1140.22 923.827 1140.22 986.395ZM885.505 551.564H685.583V574.888H885.505V551.564ZM477.7 480.666H893.465V503.99H477.7V480.666ZM622.274 551.564H371.26V574.888H622.274V551.564ZM447.527 392.737H557.114V412.729H447.527V392.737ZM643.006 1195.2H378.109V1224.27H642.821V1195.2H643.006ZM378.109 1010.46H659.482V1034.71H378.109V1010.46ZM528.606 923.827H436.05V948.077H528.606V923.827ZM710.943 1012.13H892.909V1032.86H710.943V1012.13ZM894.761 923.827H581.919V948.077H894.761V923.827ZM1118.38 555.266C1118.19 608.949 1102.09 661.521 1071.91 706.134C1068.03 703.912 1064.14 701.691 1060.25 699.655C1097.46 660.596 1118.19 608.949 1118.38 555.266ZM1111.9 733.16L1110.42 732.05C1145.22 682.069 1162.43 621.167 1162.43 549.713C1162.43 443.458 1125.97 360.342 1053.03 299.995C980.283 239.648 879.951 209.66 752.038 209.66H433.828V254.087H746.3C854.961 254.087 951.775 278.337 1013.23 328.318C1070.43 374.966 1091.35 415.136 1108.01 475.112C1090.98 420.319 1051 385.147 1026.19 364.415C982.689 327.947 928.636 302.217 781.286 302.217H535.826V345.533H775.733C901.425 345.533 947.703 361.083 989.909 392.367C1044.15 432.536 1077.65 480.481 1077.65 549.528C1077.65 611.911 1055.81 645.231 1018.97 679.848C1014.71 678.182 1010.46 676.516 1006.01 675.035L1010.09 672.813C1049.89 650.785 1077.47 608.764 1077.47 549.343C1077.47 484.553 1040.44 444.198 1003.98 421.429C969.916 400.141 937.522 385.703 799.242 385.703H622.829V414.58H794.244C919.195 414.58 966.399 436.794 980.838 445.494C1008.98 462.71 1046 492.513 1046 549.713C1046 586.18 1024.52 630.052 992.685 648.008C982.319 653.747 971.397 658.374 960.105 661.892C912.716 651.155 864.217 645.972 815.717 646.342H602.837V690.769H809.794C918.455 690.769 1016.75 713.168 1076.73 765C1122.08 803.503 1155.03 854.594 1171.5 911.794C1154.66 857.001 1119.86 823.866 1089.68 801.097C1044.15 766.666 991.945 738.899 844.595 738.899H511.021V782.215H839.227C964.918 782.215 1011.01 797.765 1053.4 829.049C1107.64 869.218 1140.59 917.163 1140.59 986.21C1140.59 1052.85 1107.09 1101.54 1052.66 1141.71C996.943 1182.8 911.976 1183.91 877.36 1183.91H695.023V1227.78H831.267C945.296 1227.78 1021.56 1217.97 1087.46 1169.1C1149.29 1123.19 1182.24 1063.59 1182.24 986.765C1182.8 1028.05 1173.91 1068.77 1156.33 1106.16C1138.74 1143.37 1112.82 1176.14 1080.61 1201.87C1018.23 1253.51 906.793 1276.28 795.355 1276.28H436.42V1320.34H797.761C932.339 1320.34 1037.3 1291.09 1112.82 1232.6C1188.35 1174.1 1226.11 1092.09 1226.11 986.21C1225.93 879.77 1189.28 796.654 1116.34 736.492C1114.86 735.382 1113.38 734.271 1111.9 733.16Z" fill="#00C2FF"/>
</g>
</svg>
