<svg width="803" height="803" viewBox="0 0 803 803" fill="none" xmlns="http://www.w3.org/2000/svg">
<circle cx="401.5" cy="401.5" r="401.5" fill="white"/>
<path d="M545.754 463.11V288.936H580.792V463.11H545.754Z" fill="#F7A600"/>
<path d="M137.657 514.836H62.603V340.662H134.615C169.652 340.662 190.03 359.748 190.03 389.623C190.03 408.986 176.937 421.433 167.9 425.582C178.688 430.469 192.611 441.442 192.611 464.769C192.611 497.225 169.652 514.836 137.657 514.836ZM131.941 370.997H97.7329V411.106H131.941C146.786 411.106 155.084 402.992 155.084 391.006C155.084 379.019 146.786 370.997 131.941 370.997ZM134.154 441.626H97.6407V484.409H134.154C150.013 484.409 157.574 474.635 157.574 462.833C157.574 451.031 150.013 441.626 134.154 441.626Z" fill="#14192C"/>
<path d="M299.384 443.378V514.836H264.623V443.378L210.683 340.662H248.672L282.142 410.83L315.151 340.662H353.139L299.384 443.378Z" fill="#14192C"/>
<path d="M452.535 514.836H377.481V340.662H449.493C484.53 340.662 504.907 359.748 504.907 389.623C504.907 408.986 491.814 421.433 482.778 425.582C493.566 430.469 507.489 441.442 507.489 464.769C507.397 497.225 484.53 514.836 452.535 514.836ZM446.726 370.997H412.519V411.106H446.726C461.571 411.106 469.87 402.992 469.87 391.006C469.87 379.019 461.571 370.997 446.726 370.997ZM448.939 441.626H412.426V484.409H448.939C464.799 484.409 472.359 474.635 472.359 462.833C472.359 451.031 464.891 441.626 448.939 441.626Z" fill="#14192C"/>
<path d="M693.558 370.997V514.836H658.52V370.997H611.772V340.662H740.398V370.997H693.558Z" fill="#14192C"/>
</svg>
