<svg width="1530" height="1530" viewBox="0 0 1530 1530" fill="none" xmlns="http://www.w3.org/2000/svg">
<circle cx="765" cy="765" r="765" fill="white"/>
<path fill-rule="evenodd" clip-rule="evenodd" d="M1082.21 522.64L1153.28 593.521L1007.63 737.704L795.692 528.57L583.759 737.704L274.661 431.642C117.194 662.078 140.869 979.954 345.732 1184.39C461.781 1300.2 613.317 1358.08 766.04 1358.08C902.204 1358.08 1039.56 1310.83 1149.67 1218.65L1017.07 1086.28C857.227 1210.34 625.131 1199.71 478.291 1053.21C402.523 977.582 362.243 878.328 359.871 779.075L584.851 1001.21L795.597 790.889L1007.53 1000.02L1285.79 725.89L1358 798.006V522.64H1082.21Z" fill="#7650FF"/>
<path fill-rule="evenodd" clip-rule="evenodd" d="M1148.54 311.134C921.183 119.697 582.575 125.627 361.105 330.064L493.712 461.247C570.714 392.69 667.784 357.25 764.855 357.25C853.67 357.25 941.3 385.621 1014.7 442.317L1148.54 311.134Z" fill="#7650FF"/>
</svg>
