<svg width="487" height="492" viewBox="0 0 487 492" fill="none" xmlns="http://www.w3.org/2000/svg">
<ellipse cx="243.5" cy="246" rx="243.5" ry="246" fill="white"/>
<path d="M187.133 212.869V250.074H150.17V217.673C150.17 215.005 148.003 212.854 145.351 212.854H132.833V301.903C132.833 304.57 135 306.722 137.652 306.722H150.17V265.183H187.148V301.888C187.118 304.555 189.239 306.753 191.891 306.783H204.485V217.673C204.485 215.005 202.318 212.854 199.666 212.854H187.133V212.869ZM260.527 236.146V280.777C260.558 284.839 258.436 288.612 254.935 290.704C245.145 296.356 234.992 289.264 234.992 279.959V240.966C234.992 238.298 232.824 236.146 230.172 236.146H217.655V281.565C217.685 296.205 229.536 308.041 244.175 308.117H251.283C265.938 308.086 277.819 296.205 277.849 281.55V240.966C277.849 238.298 275.682 236.146 273.03 236.146H260.527Z" fill="#1B2143"/>
<path d="M449.826 306.783H462.344V243.557C462.344 240.89 460.177 238.738 457.525 238.738H445.007V301.933C444.992 304.601 447.128 306.768 449.796 306.798H449.826V306.783Z" fill="#2CA6E0"/>
<path d="M455.035 222.94C455.346 222.19 454.99 221.33 454.24 221.02C453.49 220.709 452.63 221.065 452.319 221.815C452.008 222.565 452.365 223.425 453.115 223.736C453.865 224.047 454.725 223.69 455.035 222.94Z" fill="#2CA6E0"/>
<path d="M322.586 236.101C304.431 236.101 289.579 249.074 289.579 267.229V277.034C289.579 295.19 304.431 308.086 322.586 308.086C340.742 308.086 355.594 295.19 355.594 277.034V267.229C355.609 249.089 340.757 236.101 322.586 236.101ZM338.181 278.216C338.181 286.794 331.164 292.522 322.556 292.522C313.948 292.522 306.947 286.809 306.947 278.216V265.971C306.947 257.394 313.963 251.665 322.556 251.665C331.149 251.665 338.181 257.378 338.181 265.971V278.216Z" fill="#1B2143"/>
<path d="M400.315 236.101C394.875 236.071 389.51 237.298 384.615 239.662V217.764C384.615 215.096 382.448 212.944 379.796 212.944H367.278V277.049C367.278 295.205 382.13 308.101 400.285 308.101C418.44 308.101 433.292 295.205 433.292 277.049V267.244C433.322 249.089 418.516 236.101 400.315 236.101ZM415.94 278.216C415.94 286.794 408.923 292.522 400.315 292.522C391.738 292.522 384.706 286.809 384.706 278.216V265.971C384.706 257.393 391.723 251.665 400.315 251.665C408.908 251.665 415.94 257.378 415.94 265.971V278.216Z" fill="#2CA6E0"/>
<path d="M80.4429 220.567C80.4429 201.639 71.2288 185.348 64.2122 180.059C64.2122 180.059 63.6666 179.755 63.7272 180.528C63.1513 217.082 44.4654 226.978 34.2057 240.314C10.5187 271.109 32.5235 304.874 54.9829 311.102C67.5007 314.603 52.0732 304.919 50.0879 284.49C47.648 259.849 80.4429 241.011 80.4429 220.567Z" fill="#1B2143"/>
<path d="M91.2028 233.01C91.0513 232.919 90.8543 232.843 90.7179 233.085C90.3239 237.677 85.641 247.513 79.67 256.56C59.4839 287.218 70.9863 301.994 77.4574 309.95C81.2158 314.542 77.4574 309.95 86.8383 305.237C98.4317 298.205 105.964 286.021 107.07 272.503C108.934 250.725 95.8554 236.995 91.2028 233.01Z" fill="#2CA6E0"/>
</svg>
