<svg width="987" height="988" viewBox="0 0 987 988" fill="none" xmlns="http://www.w3.org/2000/svg">
<circle cx="493.5" cy="494" r="493.5" fill="#23AF91"/>
<path fill-rule="evenodd" clip-rule="evenodd" d="M375.06 493.383L579.863 698.186L708.173 569.876C730.38 550.136 767.393 550.136 789.6 572.343C811.808 594.551 811.807 629.096 792.067 653.771L619.342 821.561C597.135 843.768 560.123 843.768 537.915 821.561L291.165 574.811V722.861C291.165 754.938 264.023 782.081 231.945 782.081C199.868 782.081 172.725 754.938 172.725 722.861V266.373C172.725 234.296 199.868 207.153 231.945 207.153C264.023 207.153 291.165 234.296 291.165 266.373V411.956L537.915 165.206C560.123 142.998 597.135 142.998 619.342 165.206L789.6 335.463C809.34 357.671 809.34 394.683 787.132 416.891C764.925 439.098 730.38 439.098 705.705 419.358L577.395 291.048L375.06 493.383ZM579.863 436.631C555.188 436.631 535.448 451.436 525.578 473.643C515.708 495.851 520.643 520.526 537.915 537.798C555.188 555.071 579.862 560.006 602.07 550.136C624.277 540.266 639.082 520.526 639.082 495.851C639.082 481.046 634.148 466.241 621.81 453.903C609.473 441.566 594.668 436.631 579.863 436.631Z" fill="white"/>
</svg>
