<svg width="1530" height="1530" viewBox="0 0 1530 1530" fill="none" xmlns="http://www.w3.org/2000/svg">
<circle cx="765" cy="765" r="765" fill="white"/>
<g clip-path="url(#clip0_71_561)">
<path d="M765.5 1469C1154.03 1469 1469 1154.03 1469 765.5C1469 376.968 1154.03 62 765.5 62C376.968 62 62 376.968 62 765.5C62 1154.03 376.968 1469 765.5 1469Z" fill="#FFC100"/>
<path d="M951.618 857.912C1005.76 857.912 1049.66 813.489 1049.66 758.69C1049.66 703.892 1005.76 659.468 951.618 659.468C897.472 659.468 853.578 703.892 853.578 758.69C853.578 813.489 897.472 857.912 951.618 857.912Z" fill="white"/>
<path d="M1219.68 905.243L1216.81 900.741L1216.02 899.503C1205.27 882.619 1202.01 879.073 1196.83 871.25C1125.07 760.829 1166.1 689.86 1198.35 653.615C1202.29 649.225 1205.95 643.991 1209.32 639.996C1214.22 634.311 1218.44 628.064 1221.87 621.367L1222.44 620.41C1228.74 607.803 1232.06 593.846 1232.06 579.72C1232.06 579.269 1232.06 578.819 1232.06 578.425C1227.61 528.899 1186.14 490.966 1136.38 490.966C1086.69 490.966 1045.16 528.899 1040.71 578.425C1040.71 594.353 1044.76 609.998 1052.42 623.956C1053.54 626.263 1059.06 633.58 1059.62 634.818C1060.8 636.675 1062.15 638.364 1063.67 639.883C1066.99 643.992 1070.59 647.931 1074.42 651.589C1083.93 662.17 1092.26 673.82 1099.18 686.258C1110.5 709.501 1116.46 735.165 1116.46 761.054C1116.46 797.917 1104.47 833.824 1082.36 863.371L1058.55 897.589C1057.82 898.546 1057.09 899.615 1056.41 900.628L1055.85 901.416C1046.51 916.218 1041.5 933.44 1041.5 950.943C1041.5 951.505 1041.5 952.068 1041.5 952.631C1045.94 1002.16 1087.42 1040.09 1137.17 1040.09C1186.87 1040.09 1228.4 1002.16 1232.85 952.631C1232.85 935.972 1228.35 919.595 1219.9 905.3L1219.68 905.243Z" fill="white"/>
<path d="M844.629 899.503C833.879 882.619 830.615 879.073 825.437 871.25C753.68 760.829 794.708 689.86 826.957 653.615C830.896 649.225 834.555 643.991 837.875 639.996C842.771 634.311 846.993 628.064 850.426 621.367L850.988 620.41C857.292 607.578 860.612 593.396 860.612 579.101C860.612 578.876 860.612 578.65 860.612 578.425C860.612 577.862 860.612 577.187 860.612 576.624C860.612 523.609 817.614 480.611 764.599 480.611C711.583 480.611 668.529 523.609 668.529 576.681C668.529 593.283 672.806 609.604 680.967 624.012C682.148 626.32 687.608 633.636 688.17 634.874C689.352 636.731 690.703 638.42 692.223 639.939C695.543 644.048 699.145 647.987 702.972 651.646C712.596 662.226 720.982 673.876 728.017 686.314C739.498 709.67 745.463 735.446 745.463 761.504C745.463 798.199 733.588 833.993 711.695 863.427C695.993 885.545 679.728 899.953 655.922 913.291C555.856 961.017 474.869 895.057 474.869 895.057L466.709 888.359C460.63 883.688 455.453 877.891 451.457 871.363C379.7 760.885 420.728 689.916 452.976 653.728C456.916 649.338 460.574 644.104 463.895 640.108C468.791 634.424 473.012 628.177 476.445 621.479L477.008 620.523C483.649 607.522 487.082 593.171 487.082 578.594C482.636 529.068 441.157 491.135 391.406 491.135C341.711 491.135 300.176 529.068 295.73 578.594C295.73 594.521 299.782 610.167 307.436 624.125C308.562 626.432 314.077 633.748 314.64 634.987C315.822 636.844 317.173 638.532 318.692 640.052C322.013 644.16 325.615 648.1 329.442 651.758C338.897 662.339 347.17 674.045 354.036 686.427C365.405 709.67 371.314 735.334 371.314 761.223C371.314 798.086 359.326 833.993 337.208 863.54L324.995 880.818C306.029 898.94 295.336 924.041 295.336 950.211V952.406C296.293 1004.75 339.009 1046.73 391.35 1046.73C416.788 1046.73 441.157 1036.66 459.167 1018.7C463.895 1015.44 466.934 1013.13 471.267 1010.37C581.745 938.617 652.714 979.645 689.015 1011.89C691.885 1014.48 694.98 1016.96 698.019 1019.27C715.973 1036.88 740.117 1046.73 765.274 1046.73C817.783 1046.73 860.556 1004.52 861.288 952.012C861.288 931.807 855.885 916.049 844.629 899.503Z" fill="white"/>
</g>
<defs>
<clipPath id="clip0_71_561">
<rect width="1407" height="1407" fill="white" transform="translate(62 62)"/>
</clipPath>
</defs>
</svg>
