<svg width="1530" height="1530" viewBox="0 0 1530 1530" fill="none" xmlns="http://www.w3.org/2000/svg">
<circle cx="765" cy="765" r="765" fill="white"/>
<path d="M1385.33 927.346L1108.12 446.497C1047.35 346.246 899.152 345.22 840.488 450.753L549.425 950.832C495.069 1042.52 562.245 1157.64 671.009 1157.64H1254.21C1364 1157.64 1446.1 1039.29 1385.33 927.346Z" fill="#3156AA"/>
<path d="M985.507 964.677L968.431 934.833C952.432 907.09 917.254 847.401 917.254 847.401L682.701 440.087C621.935 349.476 477.993 341.989 417.227 456.086L144.266 928.423C87.7557 1027.6 154.932 1156.57 277.541 1157.64H857.565H1104.94H1252.06C1101.76 1158.72 1053.76 1080.88 985.507 964.677Z" fill="#1972E2"/>
<path d="M985.558 964.677L968.482 934.833C952.482 907.09 917.305 847.401 917.305 847.401L765.876 580.85L548.348 951.909C493.992 1043.6 561.168 1158.77 669.881 1158.77H856.487H1103.86H1252.06C1100.68 1157.64 1053.76 1080.88 985.558 964.677Z" fill="url(#paint0_linear_71_559)"/>
<defs>
<linearGradient id="paint0_linear_71_559" x1="484.832" y1="783.575" x2="1116.6" y2="1031.99" gradientUnits="userSpaceOnUse">
<stop stop-color="#264CA2" stop-opacity="0"/>
<stop offset="1" stop-color="#234588"/>
</linearGradient>
</defs>
</svg>
