<svg width="1530" height="1530" viewBox="0 0 1530 1530" fill="none" xmlns="http://www.w3.org/2000/svg">
<circle cx="765" cy="765" r="765" fill="white"/>
<path d="M912.46 595.92H619.624C607.194 595.92 597.004 606.11 597.004 618.54V911.376C597.004 923.806 607.194 933.996 619.624 933.996H912.46C924.89 933.996 935.08 923.806 935.08 911.376V618.54C935.08 606.11 924.89 595.92 912.46 595.92Z" fill="black"/>
<path d="M574.456 259H281.62C269.19 259 259 269.19 259 281.62V574.456C259 586.886 269.19 597.076 281.62 597.076H574.456C586.886 597.076 597.076 586.886 597.076 574.456V281.62C597.004 269.19 586.886 259 574.456 259Z" fill="black"/>
<path d="M1249.38 259H956.544C944.114 259 933.924 269.19 933.924 281.62V574.456C933.924 586.886 944.114 597.076 956.544 597.076H1249.38C1261.81 597.076 1272 586.886 1272 574.456V281.62C1272 269.19 1261.81 259 1249.38 259Z" fill="black"/>
<path d="M574.456 932.839H281.62C269.19 932.839 259 943.029 259 955.46V1248.3C259 1260.73 269.19 1270.92 281.62 1270.92H574.456C586.886 1270.92 597.076 1260.73 597.076 1248.3V955.46C597.004 943.029 586.886 932.839 574.456 932.839Z" fill="black"/>
<path d="M1249.38 932.839H956.544C944.114 932.839 933.924 943.029 933.924 955.46V1248.3C933.924 1260.73 944.114 1270.92 956.544 1270.92H1249.38C1261.81 1270.92 1272 1260.73 1272 1248.3V955.46C1272 943.029 1261.81 932.839 1249.38 932.839Z" fill="black"/>
</svg>
