<svg width="1530" height="1530" viewBox="0 0 1530 1530" fill="none" xmlns="http://www.w3.org/2000/svg">
<circle cx="765" cy="765" r="765" fill="white"/>
<path d="M717.876 1040.9L855.483 623.891L921.638 645.385L874.216 489.294H1283.31C1357.51 489.294 1396.3 555.687 1369.52 637.111L1343.68 715.793C1343.38 716.723 1343.04 717.654 1342.45 718.878L1341.23 721.668C1334.16 741.008 1324.31 759.467 1312 776.065C1273.21 828.896 1213.82 863.316 1160.86 863.659H1156.83H955.231L897.069 1041L717.876 1040.9ZM985.93 771.414H1094.9C1122.31 771.414 1152.47 747.129 1161.98 717.311L1188.76 635.887C1198.62 606.069 1184.44 581.783 1157.08 581.783H1048.11L985.93 771.414ZM246.012 1040.9C241.402 1040.61 236.792 1040.31 232.182 1039.68C224.483 1038.75 216.784 1036.89 209.722 1034.15C195.255 1028.61 182.652 1021.22 172.795 1008.93C166.959 1001.54 162.349 992.968 158.965 984.057C157.445 979.454 155.876 974.852 154.944 970.25C149.697 946.307 151.855 922.316 158.328 898.961C158.916 896.806 161.712 888.189 161.712 888.189L292.796 489.294H473.803L340.512 894.358C333.107 916.489 338.992 936.172 354.685 944.446C359.932 947.237 365.474 948.755 371.309 948.461H460.906L611.95 489H816.643L666.727 645.14L747.693 623.646L610.135 1040.61L246.012 1040.9Z" fill="#0062DF"/>
</svg>
