<svg width="1561" height="1561" viewBox="0 0 1561 1561" fill="none" xmlns="http://www.w3.org/2000/svg">
<circle cx="781" cy="796" r="765" fill="white"/>
<path d="M786.44 1560.98C355.048 1563.92 3.01555 1216.82 0.0184724 786.432C-2.91617 355.044 344.183 3.01557 774.576 0.018525C1205.97 -2.91609 1558 343.181 1561 774.568V780.5C1562 1209.89 1215.9 1558.98 786.44 1560.98ZM786.44 116.092C419.547 114.094 120.027 408.616 118.029 776.504C116.03 1143.46 410.556 1442.91 778.51 1444.91C1145.47 1446.91 1444.92 1152.38 1446.92 785.433V780.5C1446.92 414.548 1152.4 118.027 786.44 116.092ZM814.225 673.418L963.955 489.974C979.814 471.117 976.879 442.395 958.023 426.474C950.093 420.542 940.165 416.546 930.237 416.546C917.312 416.546 904.45 422.478 896.52 432.405L757.655 601.988L617.792 432.405C609.862 422.478 596.999 416.546 584.075 416.546H469.124C444.336 416.546 424.48 437.4 424.48 462.188C424.48 472.116 428.414 482.044 434.408 489.974L641.706 742.85L377.9 1066.16C362.041 1085.01 363.04 1112.8 381.834 1128.66C400.691 1144.52 428.476 1143.52 444.336 1124.72L445.335 1123.72L699.212 813.343L814.225 673.418ZM1161.32 416.546C1148.46 416.546 1135.54 422.478 1127.61 432.405L874.729 742.787L759.716 883.586L609.924 1067.09C594.065 1085.95 596.063 1113.73 614.857 1129.59C633.714 1145.45 661.499 1143.46 677.359 1124.66L816.223 955.078L955.088 1124.66C963.018 1134.59 975.88 1140.52 988.805 1140.52H1103.82C1128.61 1140.52 1148.46 1120.67 1148.46 1095.88C1148.46 1084.95 1144.53 1075.08 1137.54 1067.09L931.236 814.217L1195.04 490.91C1210.9 471.055 1206.97 443.332 1188.11 427.41C1181.18 420.542 1171.25 417.545 1161.32 416.546Z" fill="#FFBE40"/>
</svg>
